<?xml version="1.0" encoding="us-ascii" standalone="no"?><svg xmlns="http://www.w3.org/2000/svg" xmlns:xlink="http://www.w3.org/1999/xlink" contentStyleType="text/css" height="1759px" preserveAspectRatio="none" style="width:658px;height:1759px;background:#FFFFFF;" version="1.1" viewBox="0 0 658 1759" width="658px" zoomAndPan="magnify"><defs/><g><text fill="#000000" font-family="sans-serif" font-size="14" font-weight="bold" lengthAdjust="spacing" textLength="311" x="166.5" y="24.9659">Historial real de confirmaciones del proyecto</text><text fill="#000000" font-family="sans-serif" font-size="14" font-weight="bold" lengthAdjust="spacing" textLength="181" x="231.5" y="44.0339">(Estado al 28 agosto 2025)</text><g id="elem_commit1"><rect fill="#E8F5E8" height="161.8195" style="stroke:#181818;stroke-width:0.5;" width="388" x="17" y="1591.1358"/><text fill="#000000" font-family="sans-serif" font-size="12" font-style="italic" lengthAdjust="spacing" textLength="89" x="166.5" y="1603.9639">&#171;Initial Commit&#187;</text><text fill="#000000" font-family="sans-serif" font-size="14" lengthAdjust="spacing" textLength="55" x="183.5" y="1624.4459">1bfb074</text><line style="stroke:#181818;stroke-width:0.5;" x1="18" x2="404" y1="1630.5479" y2="1630.5479"/><text fill="#000000" font-family="sans-serif" font-size="14" lengthAdjust="spacing" textLength="376" x="23" y="1649.5138">hash = "1bfb07401b65805740e716f37547877c58c86381"</text><text fill="#000000" font-family="sans-serif" font-size="14" lengthAdjust="spacing" textLength="175" x="23" y="1668.5817">author = "Manuel Mas&#237;as"</text><text fill="#000000" font-family="sans-serif" font-size="14" lengthAdjust="spacing" textLength="132" x="23" y="1687.6496">date = "2025-08-27"</text><text fill="#000000" font-family="sans-serif" font-size="14" lengthAdjust="spacing" textLength="181" x="23" y="1706.7176">message = "Initial commit"</text><text fill="#000000" font-family="sans-serif" font-size="14" lengthAdjust="spacing" textLength="87" x="23" y="1725.7855">parent = null</text><text fill="#000000" font-family="sans-serif" font-size="14" lengthAdjust="spacing" textLength="97" x="23" y="1744.8534">type = "inicial"</text></g><g id="elem_commit2"><rect fill="#E1F5FE" height="104.6158" style="stroke:#181818;stroke-width:0.5;" width="304" x="59" y="1407.1358"/><text fill="#000000" font-family="sans-serif" font-size="12" font-style="italic" lengthAdjust="spacing" textLength="99" x="161.5" y="1419.9639">&#171;Normal Commit&#187;</text><text fill="#000000" font-family="sans-serif" font-size="14" lengthAdjust="spacing" textLength="56" x="183" y="1440.4459">da585c4</text><line style="stroke:#181818;stroke-width:0.5;" x1="60" x2="362" y1="1446.5479" y2="1446.5479"/><text fill="#000000" font-family="sans-serif" font-size="14" lengthAdjust="spacing" textLength="117" x="65" y="1465.5138">hash = "da585c4"</text><text fill="#000000" font-family="sans-serif" font-size="14" lengthAdjust="spacing" textLength="292" x="65" y="1484.5817">message = "docs: actualizar README.md..."</text><text fill="#000000" font-family="sans-serif" font-size="14" lengthAdjust="spacing" textLength="12" x="65" y="1503.6496">...</text></g><g id="elem_commit3"><rect fill="#E1F5FE" height="104.6158" style="stroke:#181818;stroke-width:0.5;" width="354" x="34" y="1223.1358"/><text fill="#000000" font-family="sans-serif" font-size="12" font-style="italic" lengthAdjust="spacing" textLength="99" x="161.5" y="1235.9639">&#171;Normal Commit&#187;</text><text fill="#000000" font-family="sans-serif" font-size="14" lengthAdjust="spacing" textLength="55" x="183.5" y="1256.4459">0df74d1</text><line style="stroke:#181818;stroke-width:0.5;" x1="35" x2="387" y1="1262.5479" y2="1262.5479"/><text fill="#000000" font-family="sans-serif" font-size="14" lengthAdjust="spacing" textLength="116" x="40" y="1281.5138">hash = "0df74d1"</text><text fill="#000000" font-family="sans-serif" font-size="14" lengthAdjust="spacing" textLength="342" x="40" y="1300.5817">message = "docs: agregar secci&#243;n herramientas..."</text><text fill="#000000" font-family="sans-serif" font-size="14" lengthAdjust="spacing" textLength="12" x="40" y="1319.6496">...</text></g><g id="elem_commit4"><rect fill="#E1F5FE" height="104.6158" style="stroke:#181818;stroke-width:0.5;" width="357" x="32.5" y="1039.1358"/><text fill="#000000" font-family="sans-serif" font-size="12" font-style="italic" lengthAdjust="spacing" textLength="99" x="161.5" y="1051.9639">&#171;Normal Commit&#187;</text><text fill="#000000" font-family="sans-serif" font-size="14" lengthAdjust="spacing" textLength="54" x="184" y="1072.4459">304fb71</text><line style="stroke:#181818;stroke-width:0.5;" x1="33.5" x2="388.5" y1="1078.5479" y2="1078.5479"/><text fill="#000000" font-family="sans-serif" font-size="14" lengthAdjust="spacing" textLength="115" x="38.5" y="1097.5138">hash = "304fb71"</text><text fill="#000000" font-family="sans-serif" font-size="14" lengthAdjust="spacing" textLength="345" x="38.5" y="1116.5817">message = "docs: agregar informaci&#243;n detallada..."</text><text fill="#000000" font-family="sans-serif" font-size="14" lengthAdjust="spacing" textLength="12" x="38.5" y="1135.6496">...</text></g><g id="elem_commit5"><rect fill="#E1F5FE" height="104.6158" style="stroke:#181818;stroke-width:0.5;" width="328" x="47" y="855.1358"/><text fill="#000000" font-family="sans-serif" font-size="12" font-style="italic" lengthAdjust="spacing" textLength="99" x="161.5" y="867.9639">&#171;Normal Commit&#187;</text><text fill="#000000" font-family="sans-serif" font-size="14" lengthAdjust="spacing" textLength="56" x="183" y="888.4459">bdaf10d</text><line style="stroke:#181818;stroke-width:0.5;" x1="48" x2="374" y1="894.5479" y2="894.5479"/><text fill="#000000" font-family="sans-serif" font-size="14" lengthAdjust="spacing" textLength="117" x="53" y="913.5138">hash = "bdaf10d"</text><text fill="#000000" font-family="sans-serif" font-size="14" lengthAdjust="spacing" textLength="316" x="53" y="932.5817">message = "docs: corregir errores redacci&#243;n..."</text><text fill="#000000" font-family="sans-serif" font-size="14" lengthAdjust="spacing" textLength="12" x="53" y="951.6496">...</text></g><g id="elem_commit6"><rect fill="#E1F5FE" height="104.6158" style="stroke:#181818;stroke-width:0.5;" width="373" x="24.5" y="671.1358"/><text fill="#000000" font-family="sans-serif" font-size="12" font-style="italic" lengthAdjust="spacing" textLength="99" x="161.5" y="683.9639">&#171;Normal Commit&#187;</text><text fill="#000000" font-family="sans-serif" font-size="14" lengthAdjust="spacing" textLength="53" x="184.5" y="704.4459">9a5735f</text><line style="stroke:#181818;stroke-width:0.5;" x1="25.5" x2="396.5" y1="710.5479" y2="710.5479"/><text fill="#000000" font-family="sans-serif" font-size="14" lengthAdjust="spacing" textLength="114" x="30.5" y="729.5138">hash = "9a5735f"</text><text fill="#000000" font-family="sans-serif" font-size="14" lengthAdjust="spacing" textLength="361" x="30.5" y="748.5817">message = "docs: actualizar introducci&#243;n al control..."</text><text fill="#000000" font-family="sans-serif" font-size="14" lengthAdjust="spacing" textLength="12" x="30.5" y="767.6496">...</text></g><g id="elem_commit7"><rect fill="#E1F5FE" height="161.8195" style="stroke:#181818;stroke-width:0.5;" width="386" x="18" y="430.1358"/><text fill="#000000" font-family="sans-serif" font-size="12" font-style="italic" lengthAdjust="spacing" textLength="99" x="161.5" y="442.9639">&#171;Normal Commit&#187;</text><text fill="#000000" font-family="sans-serif" font-size="14" lengthAdjust="spacing" textLength="56" x="183" y="463.4459">e7ec78d</text><line style="stroke:#181818;stroke-width:0.5;" x1="19" x2="403" y1="469.5479" y2="469.5479"/><text fill="#000000" font-family="sans-serif" font-size="14" lengthAdjust="spacing" textLength="374" x="24" y="488.5138">hash = "e7ec78da64a683eff4520f001428a865115b852d"</text><text fill="#000000" font-family="sans-serif" font-size="14" lengthAdjust="spacing" textLength="175" x="24" y="507.5817">author = "mmasias@sdf1"</text><text fill="#000000" font-family="sans-serif" font-size="14" lengthAdjust="spacing" textLength="132" x="24" y="526.6496">date = "2025-08-27"</text><text fill="#000000" font-family="sans-serif" font-size="14" lengthAdjust="spacing" textLength="349" x="24" y="545.7176">message = "feat: art&#237;culo repositorios, diagramas..."</text><text fill="#000000" font-family="sans-serif" font-size="14" lengthAdjust="spacing" textLength="126" x="24" y="564.7855">parent = "9a5735f"</text><text fill="#000000" font-family="sans-serif" font-size="14" lengthAdjust="spacing" textLength="105" x="24" y="583.8534">type = "normal"</text></g><g id="elem_commit8"><rect fill="#FFEBEE" height="161.8195" style="stroke:#181818;stroke-width:0.5;" width="408" x="7" y="189.1358"/><text fill="#000000" font-family="sans-serif" font-size="12" font-style="italic" lengthAdjust="spacing" textLength="99" x="161.5" y="201.9639">&#171;Normal Commit&#187;</text><text fill="#000000" font-family="sans-serif" font-size="14" lengthAdjust="spacing" textLength="53" x="184.5" y="222.4459">117959f</text><line style="stroke:#181818;stroke-width:0.5;" x1="8" x2="414" y1="228.5479" y2="228.5479"/><text fill="#000000" font-family="sans-serif" font-size="14" lengthAdjust="spacing" textLength="365" x="13" y="247.5138">hash = "117959f07efcc2b21f710717078d608d7c6ff4ac"</text><text fill="#000000" font-family="sans-serif" font-size="14" lengthAdjust="spacing" textLength="175" x="13" y="266.5817">author = "mmasias@sdf1"</text><text fill="#000000" font-family="sans-serif" font-size="14" lengthAdjust="spacing" textLength="132" x="13" y="285.6496">date = "2025-08-28"</text><text fill="#000000" font-family="sans-serif" font-size="14" lengthAdjust="spacing" textLength="396" x="13" y="304.7176">message = "docs: agregar secci&#243;n sobre confirmaciones..."</text><text fill="#000000" font-family="sans-serif" font-size="14" lengthAdjust="spacing" textLength="129" x="13" y="323.7855">parent = "e7ec78d"</text><text fill="#000000" font-family="sans-serif" font-size="14" lengthAdjust="spacing" textLength="105" x="13" y="342.8534">type = "normal"</text></g><g id="elem_head"><rect fill="#F1F1F1" height="85.5479" style="stroke:#181818;stroke-width:0.5;" width="156" x="495" y="227.1358"/><text fill="#000000" font-family="sans-serif" font-size="12" font-style="italic" lengthAdjust="spacing" textLength="51" x="547.5" y="239.9639">&#171;Pointer&#187;</text><text fill="#000000" font-family="sans-serif" font-size="14" lengthAdjust="spacing" textLength="37" x="554.5" y="260.4459">HEAD</text><line style="stroke:#181818;stroke-width:0.5;" x1="496" x2="650" y1="266.5479" y2="266.5479"/><text fill="#000000" font-family="sans-serif" font-size="14" lengthAdjust="spacing" textLength="143" x="501" y="285.5138">apunta_a = "117959f"</text><text fill="#000000" font-family="sans-serif" font-size="14" lengthAdjust="spacing" textLength="144" x="501" y="304.5817">rama_actual = "main"</text></g><g id="elem_GMN20"><path d="M439.5,1640.6358 L439.5,1668.1358 L405.11,1672.1358 L439.5,1676.1358 L439.5,1703.7539 A0,0 0 0 0 439.5,1703.7539 L588.5,1703.7539 A0,0 0 0 0 588.5,1703.7539 L588.5,1650.6358 L578.5,1640.6358 L439.5,1640.6358 A0,0 0 0 0 439.5,1640.6358 " fill="#FEFFDD" style="stroke:#181818;stroke-width:0.5;"/><path d="M578.5,1640.6358 L578.5,1650.6358 L588.5,1650.6358 L578.5,1640.6358 " fill="#FEFFDD" style="stroke:#181818;stroke-width:0.5;"/><text fill="#000000" font-family="sans-serif" font-size="13" lengthAdjust="spacing" textLength="128" x="445.5" y="1659.5328">Primera confirmaci&#243;n</text><text fill="#000000" font-family="sans-serif" font-size="13" lengthAdjust="spacing" textLength="90" x="445.5" y="1677.2389">del repositorio.</text><text fill="#000000" font-family="sans-serif" font-size="13" lengthAdjust="spacing" textLength="92" x="445.5" y="1694.9449">No tiene padre.</text></g><g id="elem_GMN23"><path d="M141,65.1358 L141,128.2539 A0,0 0 0 0 141,128.2539 L207,128.2539 L211,189.0558 L215,128.2539 L281,128.2539 A0,0 0 0 0 281,128.2539 L281,75.1358 L271,65.1358 L141,65.1358 A0,0 0 0 0 141,65.1358 " fill="#FEFFDD" style="stroke:#181818;stroke-width:0.5;"/><path d="M271,65.1358 L271,75.1358 L281,75.1358 L271,65.1358 " fill="#FEFFDD" style="stroke:#181818;stroke-width:0.5;"/><text fill="#000000" font-family="sans-serif" font-size="13" lengthAdjust="spacing" textLength="119" x="147" y="84.0328">Confirmaci&#243;n actual</text><text fill="#000000" font-family="sans-serif" font-size="13" lengthAdjust="spacing" textLength="45" x="147" y="101.7389">(HEAD).</text><text fill="#000000" font-family="sans-serif" font-size="13" lengthAdjust="spacing" textLength="90" x="147" y="119.4449">&#218;ltimo trabajo.</text></g><g id="elem_GMN26"><path d="M502,65.1358 L502,128.2539 A0,0 0 0 0 502,128.2539 L569,128.2539 L573,226.8258 L577,128.2539 L644,128.2539 A0,0 0 0 0 644,128.2539 L644,75.1358 L634,65.1358 L502,65.1358 A0,0 0 0 0 502,65.1358 " fill="#FEFFDD" style="stroke:#181818;stroke-width:0.5;"/><path d="M634,65.1358 L634,75.1358 L644,75.1358 L634,65.1358 " fill="#FEFFDD" style="stroke:#181818;stroke-width:0.5;"/><text fill="#000000" font-family="sans-serif" font-size="13" lengthAdjust="spacing" textLength="121" x="508" y="84.0328">HEAD es un puntero</text><text fill="#000000" font-family="sans-serif" font-size="13" lengthAdjust="spacing" textLength="103" x="508" y="101.7389">que indica d&#243;nde</text><text fill="#000000" font-family="sans-serif" font-size="13" lengthAdjust="spacing" textLength="120" x="508" y="119.4449">estamos trabajando</text></g><!--link commit8 to commit7--><g id="link_commit8_commit7"><path codeLine="72" d="M211,351.3858 C211,376.7458 211,398.7558 211,424.0958 " fill="none" id="commit8-to-commit7" style="stroke:#181818;stroke-width:1.0;"/><polygon fill="#181818" points="211,430.0958,215,421.0958,211,425.0958,207,421.0958,211,430.0958" style="stroke:#181818;stroke-width:1.0;"/><text fill="#000000" font-family="sans-serif" font-size="13" lengthAdjust="spacing" textLength="40" x="212" y="396.0328">parent</text></g><!--link commit7 to commit6--><g id="link_commit7_commit6"><path codeLine="73" d="M211,592.3158 C211,618.6958 211,641.2958 211,664.9658 " fill="none" id="commit7-to-commit6" style="stroke:#181818;stroke-width:1.0;"/><polygon fill="#181818" points="211,670.9658,215,661.9658,211,665.9658,207,661.9658,211,670.9658" style="stroke:#181818;stroke-width:1.0;"/><text fill="#000000" font-family="sans-serif" font-size="13" lengthAdjust="spacing" textLength="40" x="212" y="637.0328">parent</text></g><!--link commit6 to commit5--><g id="link_commit6_commit5"><path codeLine="74" d="M211,776.3058 C211,800.8958 211,824.2358 211,848.8358 " fill="none" id="commit6-to-commit5" style="stroke:#181818;stroke-width:1.0;"/><polygon fill="#181818" points="211,854.8358,215,845.8358,211,849.8358,207,845.8358,211,854.8358" style="stroke:#181818;stroke-width:1.0;"/><text fill="#000000" font-family="sans-serif" font-size="13" lengthAdjust="spacing" textLength="40" x="212" y="821.0328">parent</text></g><!--link commit5 to commit4--><g id="link_commit5_commit4"><path codeLine="75" d="M211,960.3058 C211,984.8958 211,1008.2358 211,1032.8358 " fill="none" id="commit5-to-commit4" style="stroke:#181818;stroke-width:1.0;"/><polygon fill="#181818" points="211,1038.8358,215,1029.8358,211,1033.8358,207,1029.8358,211,1038.8358" style="stroke:#181818;stroke-width:1.0;"/><text fill="#000000" font-family="sans-serif" font-size="13" lengthAdjust="spacing" textLength="40" x="212" y="1005.0328">parent</text></g><!--link commit4 to commit3--><g id="link_commit4_commit3"><path codeLine="76" d="M211,1144.3058 C211,1168.8958 211,1192.2358 211,1216.8358 " fill="none" id="commit4-to-commit3" style="stroke:#181818;stroke-width:1.0;"/><polygon fill="#181818" points="211,1222.8358,215,1213.8358,211,1217.8358,207,1213.8358,211,1222.8358" style="stroke:#181818;stroke-width:1.0;"/><text fill="#000000" font-family="sans-serif" font-size="13" lengthAdjust="spacing" textLength="40" x="212" y="1189.0328">parent</text></g><!--link commit3 to commit2--><g id="link_commit3_commit2"><path codeLine="77" d="M211,1328.3058 C211,1352.8958 211,1376.2358 211,1400.8358 " fill="none" id="commit3-to-commit2" style="stroke:#181818;stroke-width:1.0;"/><polygon fill="#181818" points="211,1406.8358,215,1397.8358,211,1401.8358,207,1397.8358,211,1406.8358" style="stroke:#181818;stroke-width:1.0;"/><text fill="#000000" font-family="sans-serif" font-size="13" lengthAdjust="spacing" textLength="40" x="212" y="1373.0328">parent</text></g><!--link commit2 to commit1--><g id="link_commit2_commit1"><path codeLine="78" d="M211,1512.3958 C211,1536.0158 211,1558.5258 211,1584.8258 " fill="none" id="commit2-to-commit1" style="stroke:#181818;stroke-width:1.0;"/><polygon fill="#181818" points="211,1590.8258,215,1581.8258,211,1585.8258,207,1581.8258,211,1590.8258" style="stroke:#181818;stroke-width:1.0;"/><text fill="#000000" font-family="sans-serif" font-size="13" lengthAdjust="spacing" textLength="40" x="212" y="1557.0328">parent</text></g><!--reverse link commit8 to head--><g id="link_commit8_head"><path codeLine="81" d="M421.01,270.1358 C449.27,270.1358 470.77,270.1358 494.7,270.1358 " fill="none" id="commit8-backto-head" style="stroke:#181818;stroke-width:1.0;"/><polygon fill="#181818" points="415.01,270.1358,424.01,274.1358,420.01,270.1358,424.01,266.1358,415.01,270.1358" style="stroke:#181818;stroke-width:1.0;"/><text fill="#000000" font-family="sans-serif" font-size="13" lengthAdjust="spacing" textLength="43" x="433.5" y="263.0328">apunta</text></g><!--SRC=[dLPDR-Cs4BthLx3feHkWDYHPNmcsGRUft3KG9ujWZm62CKdP32JI9Qd3jkWVwN_OqzvwzH_hKB9iHeYxc-OGo7pauvitCoIji3KdxuMnIWkeYURuZt52bQo4Re0A9Rd1aPfijVh4gLKFyarfB315S6fS45WhN4tYC4xFW-0xnYiXERc-MouN7n-lxsxkxidtPJHFv-K1N9RtlvK3Df_FPsLum1QtYu-BTpU7bSKyBOi3-hvyz-jnOVbBMGQ1MZsXBd8MhQfLc2Td10pgRnfX8_BsxK8AwoAxxaQkhaOR_1aG_Dk0sP2V3XHXjChI8apnY-THLitoDCcBFATfGOjiLaHdtIfexKPfjsu9iaMBbc1sdy7qA0FB7UQCcOJ59CxxyOOR0-iE6hJrQdju2vfBYwXiwxeRiP-stMmX1SNPPy5VnvWPf4LA_PXZZFbMOUgya9ybutd40y5O6bFKN1AWjeLQ_06QtAFpotBQiEbqsi_63rzAoAeyOP4dPVOwAGF12IbhpTUemt1AnUwB91kkDJG2pG9pIjCiJAfLxcjANgTf8FXlJK9MgciMfujn2tKD34w9MZ6eef1vejBNYHe8NXP5bKPLGXFqHsbiNiqPz9wTKdG1QJvBAqzHzZf50y5NgqX8gnLhzodiIj-DrAUKyPpJlF2zob-dR4y0MG9PCUDLbQHnM8LXbCG555aQHUcgI6CsxkYc0IF0_6nO5NrpFrSSB8QhxUupRMk5pc-L4UveLUP7mWJM2pHUjHvw_Rc1GyFBBind_Hv5-KLwuMUgUC4FxvGSdM_zyZ3d5QNnAewgF0hpA0_HeYmiM4upT0Ze_t2Z-DQ-DMgbnnVC2uuCcV-Q8oxMpeuD1uPUV51OOroZ2ttei6tnX7W4B_oUqwNYiI_DBaGGiYF-WTpp-dZnxILnGnLvGu5n2OHg9LMz-x8M5Cw38GyJDhaw5EdbVbqm37XeDaOp7qt7QEgZoHXDV7GsHcS-6e_Hs4UZ8ueUE5lttf733RNlvA2pUb8VbXQuj9yR159XOMYntbYYAe_wWnODr-0b7elXGRgNXTScqmTvguZ5KzqPppIVxXcjsXxvt7xNFizU63vDdEvpPDdzNLlH89M65Jof4KqNm6KV96QvbSIfvneVDx-t74yfXfab39aPVy0wiD0ei-S2oHGwz5ASQQVBVHdILM736RO-okhk1-jE1DCsWYad4IFe0fMa4QPnqngyEh2nLDVRsvhZrtJOgkQLjvChePjE4ihV_TF5Efm8ZWYVP1gVQ6vek94ma87LvHa8V-BuKmN_0W00]--></g></svg>