<?xml version="1.0" encoding="us-ascii" standalone="no"?><svg xmlns="http://www.w3.org/2000/svg" xmlns:xlink="http://www.w3.org/1999/xlink" contentStyleType="text/css" height="806px" preserveAspectRatio="none" style="width:616px;height:806px;background:#FFFFFF;" version="1.1" viewBox="0 0 616 806" width="616px" zoomAndPan="magnify"><defs/><g><line style="stroke:#181818;stroke-width:0.5;stroke-dasharray:5.0,5.0;" x1="87" x2="87" y1="58.1358" y2="748.9622"/><line style="stroke:#181818;stroke-width:0.5;stroke-dasharray:5.0,5.0;" x1="210.5" x2="210.5" y1="58.1358" y2="748.9622"/><line style="stroke:#181818;stroke-width:0.5;stroke-dasharray:5.0,5.0;" x1="313.5" x2="313.5" y1="58.1358" y2="748.9622"/><line style="stroke:#181818;stroke-width:0.5;stroke-dasharray:5.0,5.0;" x1="413.5" x2="413.5" y1="58.1358" y2="748.9622"/><rect fill="#E2E2F0" height="52.1358" rx="2.5" ry="2.5" style="stroke:#181818;stroke-width:0.5;" width="83" x="46" y="5"/><text fill="#000000" font-family="sans-serif" font-size="14" lengthAdjust="spacing" textLength="66" x="54.5" y="26.9659">Directorio</text><text fill="#000000" font-family="sans-serif" font-size="14" lengthAdjust="spacing" textLength="69" x="53" y="46.0339">de trabajo</text><rect fill="#E2E2F0" height="52.1358" rx="2.5" ry="2.5" style="stroke:#181818;stroke-width:0.5;" width="83" x="46" y="747.9622"/><text fill="#000000" font-family="sans-serif" font-size="14" lengthAdjust="spacing" textLength="66" x="54.5" y="769.9281">Directorio</text><text fill="#000000" font-family="sans-serif" font-size="14" lengthAdjust="spacing" textLength="69" x="53" y="788.996">de trabajo</text><rect fill="#E2E2F0" height="52.1358" rx="2.5" ry="2.5" style="stroke:#181818;stroke-width:0.5;" width="96" x="162.5" y="5"/><text fill="#000000" font-family="sans-serif" font-size="14" lengthAdjust="spacing" textLength="52" x="184.5" y="26.9659">&#193;rea de</text><text fill="#000000" font-family="sans-serif" font-size="14" lengthAdjust="spacing" textLength="82" x="169.5" y="46.0339">preparaci&#243;n</text><rect fill="#E2E2F0" height="52.1358" rx="2.5" ry="2.5" style="stroke:#181818;stroke-width:0.5;" width="96" x="162.5" y="747.9622"/><text fill="#000000" font-family="sans-serif" font-size="14" lengthAdjust="spacing" textLength="52" x="184.5" y="769.9281">&#193;rea de</text><text fill="#000000" font-family="sans-serif" font-size="14" lengthAdjust="spacing" textLength="82" x="169.5" y="788.996">preparaci&#243;n</text><rect fill="#E2E2F0" height="52.1358" rx="2.5" ry="2.5" style="stroke:#181818;stroke-width:0.5;" width="90" x="268.5" y="5"/><text fill="#000000" font-family="sans-serif" font-size="14" lengthAdjust="spacing" textLength="76" x="275.5" y="26.9659">Repositorio</text><text fill="#000000" font-family="sans-serif" font-size="14" lengthAdjust="spacing" textLength="31" x="298" y="46.0339">local</text><rect fill="#E2E2F0" height="52.1358" rx="2.5" ry="2.5" style="stroke:#181818;stroke-width:0.5;" width="90" x="268.5" y="747.9622"/><text fill="#000000" font-family="sans-serif" font-size="14" lengthAdjust="spacing" textLength="76" x="275.5" y="769.9281">Repositorio</text><text fill="#000000" font-family="sans-serif" font-size="14" lengthAdjust="spacing" textLength="31" x="298" y="788.996">local</text><rect fill="#E2E2F0" height="52.1358" rx="2.5" ry="2.5" style="stroke:#181818;stroke-width:0.5;" width="90" x="368.5" y="5"/><text fill="#000000" font-family="sans-serif" font-size="14" lengthAdjust="spacing" textLength="76" x="375.5" y="26.9659">Repositorio</text><text fill="#000000" font-family="sans-serif" font-size="14" lengthAdjust="spacing" textLength="48" x="389.5" y="46.0339">remoto</text><rect fill="#E2E2F0" height="52.1358" rx="2.5" ry="2.5" style="stroke:#181818;stroke-width:0.5;" width="90" x="368.5" y="747.9622"/><text fill="#000000" font-family="sans-serif" font-size="14" lengthAdjust="spacing" textLength="76" x="375.5" y="769.9281">Repositorio</text><text fill="#000000" font-family="sans-serif" font-size="14" lengthAdjust="spacing" textLength="48" x="389.5" y="788.996">remoto</text><rect fill="#EEEEEE" height="3" style="stroke:#EEEEEE;stroke-width:1.0;" width="609.5" x="0" y="89.9888"/><line style="stroke:#000000;stroke-width:1.0;" x1="0" x2="609.5" y1="89.9888" y2="89.9888"/><line style="stroke:#000000;stroke-width:1.0;" x1="0" x2="609.5" y1="92.9888" y2="92.9888"/><rect fill="#EEEEEE" height="25.706" style="stroke:#000000;stroke-width:2.0;" width="158" x="225.75" y="78.1358"/><text fill="#000000" font-family="sans-serif" font-size="13" font-weight="bold" lengthAdjust="spacing" textLength="141" x="231.75" y="96.0328">Ciclo t&#237;pico de trabajo</text><path d="M5,118.8419 L5,163.8419 L171,163.8419 L171,128.8419 L161,118.8419 L5,118.8419 " fill="#FEFFDD" style="stroke:#181818;stroke-width:0.5;"/><path d="M161,118.8419 L161,128.8419 L171,128.8419 L161,118.8419 " fill="#FEFFDD" style="stroke:#181818;stroke-width:0.5;"/><text fill="#000000" font-family="sans-serif" font-size="13" lengthAdjust="spacing" textLength="113" x="11" y="137.7389">Editar archivos con</text><text fill="#000000" font-family="sans-serif" font-size="13" lengthAdjust="spacing" textLength="145" x="11" y="155.4449">herramientas habituales</text><line style="stroke:#181818;stroke-width:1.0;" x1="87.5" x2="129.5" y1="192.9599" y2="192.9599"/><line style="stroke:#181818;stroke-width:1.0;" x1="129.5" x2="129.5" y1="192.9599" y2="205.9599"/><line style="stroke:#181818;stroke-width:1.0;" x1="88.5" x2="129.5" y1="205.9599" y2="205.9599"/><polygon fill="#181818" points="98.5,201.9599,88.5,205.9599,98.5,209.9599,94.5,205.9599" style="stroke:#181818;stroke-width:1.0;"/><text fill="#000000" font-family="sans-serif" font-size="13" lengthAdjust="spacing" textLength="109" x="94.5" y="187.1509">modificar archivos</text><polygon fill="#181818" points="198.5,245.5189,208.5,249.5189,198.5,253.5189,202.5,249.5189" style="stroke:#181818;stroke-width:1.0;"/><line style="stroke:#181818;stroke-width:1.0;" x1="87.5" x2="204.5" y1="249.5189" y2="249.5189"/><text fill="#000000" font-family="sans-serif" font-size="13" lengthAdjust="spacing" textLength="23" x="94.5" y="243.7099">add</text><path d="M215,218.9599 L215,263.9599 L380,263.9599 L380,228.9599 L370,218.9599 L215,218.9599 " fill="#FEFFDD" style="stroke:#181818;stroke-width:0.5;"/><path d="M370,218.9599 L370,228.9599 L380,228.9599 L370,218.9599 " fill="#FEFFDD" style="stroke:#181818;stroke-width:0.5;"/><text fill="#000000" font-family="sans-serif" font-size="13" lengthAdjust="spacing" textLength="120" x="221" y="237.8569">Seleccionar cambios</text><text fill="#000000" font-family="sans-serif" font-size="13" lengthAdjust="spacing" textLength="144" x="221" y="255.5629">espec&#237;ficos para registro</text><polygon fill="#181818" points="301.5,300.931,311.5,304.931,301.5,308.931,305.5,304.931" style="stroke:#181818;stroke-width:1.0;"/><line style="stroke:#181818;stroke-width:1.0;" x1="210.5" x2="307.5" y1="304.931" y2="304.931"/><text fill="#000000" font-family="sans-serif" font-size="13" lengthAdjust="spacing" textLength="46" x="217.5" y="299.122">commit</text><path d="M318,274.3719 L318,319.3719 L452,319.3719 L452,284.3719 L442,274.3719 L318,274.3719 " fill="#FEFFDD" style="stroke:#181818;stroke-width:0.5;"/><path d="M442,274.3719 L442,284.3719 L452,284.3719 L442,274.3719 " fill="#FEFFDD" style="stroke:#181818;stroke-width:0.5;"/><text fill="#000000" font-family="sans-serif" font-size="13" lengthAdjust="spacing" textLength="113" x="324" y="293.2689">Crear confirmaci&#243;n</text><text fill="#000000" font-family="sans-serif" font-size="13" lengthAdjust="spacing" textLength="90" x="324" y="310.975">con metadatos</text><polygon fill="#181818" points="401.5,356.343,411.5,360.343,401.5,364.343,405.5,360.343" style="stroke:#181818;stroke-width:1.0;"/><line style="stroke:#181818;stroke-width:1.0;" x1="313.5" x2="407.5" y1="360.343" y2="360.343"/><text fill="#000000" font-family="sans-serif" font-size="13" lengthAdjust="spacing" textLength="30" x="320.5" y="354.534">push</text><path d="M418,329.784 L418,374.784 L574,374.784 L574,339.784 L564,329.784 L418,329.784 " fill="#FEFFDD" style="stroke:#181818;stroke-width:0.5;"/><path d="M564,329.784 L564,339.784 L574,339.784 L564,329.784 " fill="#FEFFDD" style="stroke:#181818;stroke-width:0.5;"/><text fill="#000000" font-family="sans-serif" font-size="13" lengthAdjust="spacing" textLength="119" x="424" y="348.681">Sincronizar cambios</text><text fill="#000000" font-family="sans-serif" font-size="13" lengthAdjust="spacing" textLength="135" x="424" y="366.387">con repositorio central</text><rect fill="#EEEEEE" height="3" style="stroke:#EEEEEE;stroke-width:1.0;" width="609.5" x="0" y="402.049"/><line style="stroke:#000000;stroke-width:1.0;" x1="0" x2="609.5" y1="402.049" y2="402.049"/><line style="stroke:#000000;stroke-width:1.0;" x1="0" x2="609.5" y1="405.049" y2="405.049"/><rect fill="#EEEEEE" height="25.706" style="stroke:#000000;stroke-width:2.0;" width="162" x="223.75" y="390.196"/><text fill="#000000" font-family="sans-serif" font-size="13" font-weight="bold" lengthAdjust="spacing" textLength="145" x="229.75" y="408.093">Obtenci&#243;n de cambios</text><polygon fill="#181818" points="324.5,457.461,314.5,461.461,324.5,465.461,320.5,461.461" style="stroke:#181818;stroke-width:1.0;"/><line style="stroke:#181818;stroke-width:1.0;" x1="318.5" x2="412.5" y1="461.461" y2="461.461"/><text fill="#000000" font-family="sans-serif" font-size="13" lengthAdjust="spacing" textLength="30" x="330.5" y="455.652">fetch</text><path d="M418,430.902 L418,475.902 L552,475.902 L552,440.902 L542,430.902 L418,430.902 " fill="#FEFFDD" style="stroke:#181818;stroke-width:0.5;"/><path d="M542,430.902 L542,440.902 L552,440.902 L542,430.902 " fill="#FEFFDD" style="stroke:#181818;stroke-width:0.5;"/><text fill="#000000" font-family="sans-serif" font-size="13" lengthAdjust="spacing" textLength="113" x="424" y="449.799">Descargar cambios</text><text fill="#000000" font-family="sans-serif" font-size="13" lengthAdjust="spacing" textLength="68" x="424" y="467.505">sin integrar</text><polygon fill="#181818" points="98.5,512.8731,88.5,516.8731,98.5,520.8731,94.5,516.8731" style="stroke:#181818;stroke-width:1.0;"/><line style="stroke:#181818;stroke-width:1.0;" x1="92.5" x2="412.5" y1="516.8731" y2="516.8731"/><text fill="#000000" font-family="sans-serif" font-size="13" lengthAdjust="spacing" textLength="22" x="104.5" y="511.0641">pull</text><path d="M418,486.314 L418,531.314 L599,531.314 L599,496.314 L589,486.314 L418,486.314 " fill="#FEFFDD" style="stroke:#181818;stroke-width:0.5;"/><path d="M589,486.314 L589,496.314 L599,496.314 L589,486.314 " fill="#FEFFDD" style="stroke:#181818;stroke-width:0.5;"/><text fill="#000000" font-family="sans-serif" font-size="13" lengthAdjust="spacing" textLength="121" x="424" y="505.2111">Descargar e integrar</text><text fill="#000000" font-family="sans-serif" font-size="13" lengthAdjust="spacing" textLength="160" x="424" y="522.9171">cambios autom&#225;ticamente</text><rect fill="#EEEEEE" height="3" style="stroke:#EEEEEE;stroke-width:1.0;" width="609.5" x="0" y="558.5791"/><line style="stroke:#000000;stroke-width:1.0;" x1="0" x2="609.5" y1="558.5791" y2="558.5791"/><line style="stroke:#000000;stroke-width:1.0;" x1="0" x2="609.5" y1="561.5791" y2="561.5791"/><rect fill="#EEEEEE" height="25.706" style="stroke:#000000;stroke-width:2.0;" width="188" x="210.75" y="546.7261"/><text fill="#000000" font-family="sans-serif" font-size="13" font-weight="bold" lengthAdjust="spacing" textLength="171" x="216.75" y="564.6231">Navegaci&#243;n en el historial</text><polygon fill="#181818" points="98.5,613.9911,88.5,617.9911,98.5,621.9911,94.5,617.9911" style="stroke:#181818;stroke-width:1.0;"/><line style="stroke:#181818;stroke-width:1.0;" x1="92.5" x2="312.5" y1="617.9911" y2="617.9911"/><text fill="#000000" font-family="sans-serif" font-size="13" lengthAdjust="spacing" textLength="55" x="104.5" y="612.1821">checkout</text><path d="M318,587.4321 L318,632.4321 L468,632.4321 L468,597.4321 L458,587.4321 L318,587.4321 " fill="#FEFFDD" style="stroke:#181818;stroke-width:0.5;"/><path d="M458,587.4321 L458,597.4321 L468,597.4321 L458,587.4321 " fill="#FEFFDD" style="stroke:#181818;stroke-width:0.5;"/><text fill="#000000" font-family="sans-serif" font-size="13" lengthAdjust="spacing" textLength="107" x="324" y="606.3291">Cambiar a versi&#243;n</text><text fill="#000000" font-family="sans-serif" font-size="13" lengthAdjust="spacing" textLength="129" x="324" y="624.0351">espec&#237;fica del historial</text><rect fill="#EEEEEE" height="3" style="stroke:#EEEEEE;stroke-width:1.0;" width="609.5" x="0" y="659.6971"/><line style="stroke:#000000;stroke-width:1.0;" x1="0" x2="609.5" y1="659.6971" y2="659.6971"/><line style="stroke:#000000;stroke-width:1.0;" x1="0" x2="609.5" y1="662.6971" y2="662.6971"/><rect fill="#EEEEEE" height="25.706" style="stroke:#000000;stroke-width:2.0;" width="158" x="225.75" y="647.8441"/><text fill="#000000" font-family="sans-serif" font-size="13" font-weight="bold" lengthAdjust="spacing" textLength="141" x="231.75" y="665.7411">Correcci&#243;n de errores</text><polygon fill="#181818" points="98.5,715.1092,88.5,719.1092,98.5,723.1092,94.5,719.1092" style="stroke:#181818;stroke-width:1.0;"/><line style="stroke:#181818;stroke-width:1.0;" x1="92.5" x2="209.5" y1="719.1092" y2="719.1092"/><text fill="#000000" font-family="sans-serif" font-size="13" lengthAdjust="spacing" textLength="30" x="104.5" y="713.3002">reset</text><path d="M215,688.5501 L215,733.5501 L386,733.5501 L386,698.5501 L376,688.5501 L215,688.5501 " fill="#FEFFDD" style="stroke:#181818;stroke-width:0.5;"/><path d="M376,688.5501 L376,698.5501 L386,698.5501 L376,688.5501 " fill="#FEFFDD" style="stroke:#181818;stroke-width:0.5;"/><text fill="#000000" font-family="sans-serif" font-size="13" lengthAdjust="spacing" textLength="150" x="221" y="707.4472">Mover cambios de vuelta</text><text fill="#000000" font-family="sans-serif" font-size="13" lengthAdjust="spacing" textLength="135" x="221" y="725.1532">al directorio de trabajo</text><!--SRC=[VPCxZjj038RxEGMn_LvW0GS8rkcSPA5igOOUqHAJqL3WZ5oaor5oWAro15qib4QsjGOIm8qa_e_vXXvGCtiUC6PusBEIpw8iTMm8ik8Hlyi3O8BzgnksezCl9OI6wZWesHVqFFs9o-Z75u3tmnKDadWr3k8nB8FLuJzZIhtaabrLpkrsyCm-2EJfRM0lSEi7kvrpKJA1d4cjAJp1fuOpAg3wZi-Im4kiOqUgs3F5RAOT7ZcF62WvKpn-ABfU6ZwntqZT-jbEzGJOD2L9kUsolVX6WRndYQRms1zPKXqf3UIdD_Env9aDABMSiefpPcDcrS6qNlgUytk_PwEgSziJQr-Orj4UeQUC3UQvZubdYyh6Xp5rTuKuUfN8FxU5PWEzmGLl21J3GlNhCLDSWcQagsH1QWcNgYVA_YveJyamjTkOn14uPceLzI9Vg0vZ2FzIqrLYFTTq7BFqqs_R3EojAYr5l-2Pse84o7u1EcDgvy5GwXwkURuZ_qF6UxQp-topO6kI2jhRLStBlB4i6oUgy_MkS6nzHAd0AVUufDahkelwl6pYvJWcFOyKCjRHkZRNFzbcXzrV]--></g></svg>