<?xml version="1.0" encoding="us-ascii" standalone="no"?><svg xmlns="http://www.w3.org/2000/svg" xmlns:xlink="http://www.w3.org/1999/xlink" contentStyleType="text/css" height="708px" preserveAspectRatio="none" style="width:699px;height:708px;background:#FFFFFF;" version="1.1" viewBox="0 0 699 708" width="699px" zoomAndPan="magnify"><defs/><g><!--cluster ElRepo--><g id="cluster_ElRepo"><path d="M19.5,91 L673.5,91 A12.5,12.5 0 0 1 686,103.5 L686,115.0679 L7,115.0679 L7,103.5 A12.5,12.5 0 0 1 19.5,91 " fill="#F1F1F1" style="stroke:#F1F1F1;stroke-width:1.0;"/><rect fill="none" height="611" rx="12.5" ry="12.5" style="stroke:#181818;stroke-width:0.5;" width="679" x="7" y="91"/><line style="stroke:#181818;stroke-width:0.5;" x1="7" x2="686" y1="115.0679" y2="115.0679"/><text fill="#000000" font-family="sans-serif" font-size="14" lengthAdjust="spacing" textLength="46" x="323.5" y="109.9659">ElRepo</text></g><g id="ElRepo.Inicializado"><rect fill="#F1F1F1" height="71.7561" rx="12.5" ry="12.5" style="stroke:#181818;stroke-width:0.5;" width="234" x="192" y="129"/><line style="stroke:#181818;stroke-width:0.5;" x1="192" x2="426" y1="158.0679" y2="158.0679"/><text fill="#000000" font-family="sans-serif" font-size="14" lengthAdjust="spacing" textLength="77" x="270.5" y="148.9659">Inicializado</text><text fill="#000000" font-family="sans-serif" font-size="12" lengthAdjust="spacing" textLength="214" x="197" y="175.896">Carpeta designada como "repositorio"</text><text fill="#000000" font-family="sans-serif" font-size="12" lengthAdjust="spacing" textLength="160" x="197" y="192.2401">Sistema rastreando cambios</text></g><g id="ElRepo.Trabajado"><rect fill="#F1F1F1" height="71.7561" rx="12.5" ry="12.5" style="stroke:#181818;stroke-width:0.5;" width="282" x="168" y="280"/><line style="stroke:#181818;stroke-width:0.5;" x1="168" x2="450" y1="309.0679" y2="309.0679"/><text fill="#000000" font-family="sans-serif" font-size="14" lengthAdjust="spacing" textLength="68" x="275" y="299.9659">Trabajado</text><text fill="#000000" font-family="sans-serif" font-size="12" lengthAdjust="spacing" textLength="262" x="173" y="326.896">Archivos editados con herramientas habituales</text><text fill="#000000" font-family="sans-serif" font-size="12" lengthAdjust="spacing" textLength="242" x="173" y="343.2401">Sistema detecta cambios autom&#225;ticamente</text></g><g id="ElRepo.Confirmado"><rect fill="#F1F1F1" height="88.1003" rx="12.5" ry="12.5" style="stroke:#181818;stroke-width:0.5;" width="259" x="204.5" y="431"/><line style="stroke:#181818;stroke-width:0.5;" x1="204.5" x2="463.5" y1="460.0679" y2="460.0679"/><text fill="#000000" font-family="sans-serif" font-size="14" lengthAdjust="spacing" textLength="79" x="294.5" y="450.9659">Confirmado</text><text fill="#000000" font-family="sans-serif" font-size="12" lengthAdjust="spacing" textLength="205" x="209.5" y="477.896">Unidad l&#243;gica de trabajo completada</text><text fill="#000000" font-family="sans-serif" font-size="12" lengthAdjust="spacing" textLength="217" x="209.5" y="494.2401">"Confirmaci&#243;n" creada con descripci&#243;n</text><text fill="#000000" font-family="sans-serif" font-size="12" lengthAdjust="spacing" textLength="239" x="209.5" y="510.5842">Punto restaurable permanente establecido</text></g><g id="ElRepo.Navegado"><rect fill="#F1F1F1" height="88.1003" rx="12.5" ry="12.5" style="stroke:#181818;stroke-width:0.5;" width="207" x="58.5" y="598"/><line style="stroke:#181818;stroke-width:0.5;" x1="58.5" x2="265.5" y1="627.0679" y2="627.0679"/><text fill="#000000" font-family="sans-serif" font-size="14" lengthAdjust="spacing" textLength="68" x="128" y="617.9659">Navegado</text><text fill="#000000" font-family="sans-serif" font-size="12" lengthAdjust="spacing" textLength="187" x="63.5" y="644.896">Versiones anteriores examinadas</text><text fill="#000000" font-family="sans-serif" font-size="12" lengthAdjust="spacing" textLength="182" x="63.5" y="661.2401">Evoluci&#243;n del proyecto analizada</text><text fill="#000000" font-family="sans-serif" font-size="12" lengthAdjust="spacing" textLength="140" x="63.5" y="677.5842">Estado hist&#243;rico revisado</text></g><g id="ElRepo.Colaborado"><rect fill="#F1F1F1" height="88.1003" rx="12.5" ry="12.5" style="stroke:#181818;stroke-width:0.5;" width="276" x="333" y="598"/><line style="stroke:#181818;stroke-width:0.5;" x1="333" x2="609" y1="627.0679" y2="627.0679"/><text fill="#000000" font-family="sans-serif" font-size="14" lengthAdjust="spacing" textLength="77" x="432.5" y="617.9659">Colaborado</text><text fill="#000000" font-family="sans-serif" font-size="12" lengthAdjust="spacing" textLength="256" x="338" y="644.896">Trabajo sincronizado con otros colaboradores</text><text fill="#000000" font-family="sans-serif" font-size="12" lengthAdjust="spacing" textLength="215" x="338" y="661.2401">Cambios fusionados autom&#225;ticamente</text><text fill="#000000" font-family="sans-serif" font-size="12" lengthAdjust="spacing" textLength="233" x="338" y="677.5842">Conflictos resueltos cuando fue necesario</text></g><ellipse cx="309" cy="16" fill="#222222" rx="10" ry="10" style="stroke:#222222;stroke-width:1.0;"/><!--link *start* to Inicializado--><g id="link_*start*_Inicializado"><path d="M309,26.2 C309,46.31 309,89.11 309,122.88 " fill="none" id="*start*-to-Inicializado" style="stroke:#181818;stroke-width:1.0;"/><polygon fill="#181818" points="309,128.88,313,119.88,309,123.88,305,119.88,309,128.88" style="stroke:#181818;stroke-width:1.0;"/><text fill="#000000" font-family="sans-serif" font-size="13" lengthAdjust="spacing" textLength="62" x="310" y="70.897">inicializar()</text></g><!--link Inicializado to Trabajado--><g id="link_Inicializado_Trabajado"><path d="M309,201.31 C309,225.06 309,250.24 309,273.94 " fill="none" id="Inicializado-to-Trabajado" style="stroke:#181818;stroke-width:1.0;"/><polygon fill="#181818" points="309,279.94,313,270.94,309,274.94,305,270.94,309,279.94" style="stroke:#181818;stroke-width:1.0;"/><text fill="#000000" font-family="sans-serif" font-size="13" lengthAdjust="spacing" textLength="55" x="310" y="245.897">trabajar()</text></g><!--link Trabajado to Confirmado--><g id="link_Trabajado_Confirmado"><path d="M265.35,352.17 C252.81,366.62 244.35,383.96 252,401 C256.91,411.96 260.2317,417.6051 268.6817,426.4351 " fill="none" id="Trabajado-to-Confirmado" style="stroke:#181818;stroke-width:1.0;"/><polygon fill="#181818" points="272.83,430.77,269.4974,421.5021,269.3731,427.1576,263.7176,427.0332,272.83,430.77" style="stroke:#181818;stroke-width:1.0;"/><text fill="#000000" font-family="sans-serif" font-size="13" lengthAdjust="spacing" textLength="66" x="253" y="396.897">confirmar()</text></g><!--link Confirmado to Trabajado--><g id="link_Confirmado_Trabajado"><path d="M330.37,430.79 C328.79,415.34 326.68,397.84 324,382 C322.36,372.29 321.496,367.7171 319.286,358.1171 " fill="none" id="Confirmado-to-Trabajado" style="stroke:#181818;stroke-width:1.0;"/><polygon fill="#181818" points="317.94,352.27,316.061,361.938,319.0617,357.1426,323.8571,360.1432,317.94,352.27" style="stroke:#181818;stroke-width:1.0;"/><text fill="#000000" font-family="sans-serif" font-size="13" lengthAdjust="spacing" textLength="134" x="327" y="396.897">continuarTrabajando()</text></g><!--link Confirmado to Navegado--><g id="link_Confirmado_Navegado"><path d="M270.19,519.17 C258.03,528.46 245.76,538.62 235,549 C219.74,563.73 208.4734,576.9028 196.1534,593.0228 " fill="none" id="Confirmado-to-Navegado" style="stroke:#181818;stroke-width:1.0;"/><polygon fill="#181818" points="192.51,597.79,201.1532,593.0682,195.5462,593.8174,194.797,588.2103,192.51,597.79" style="stroke:#181818;stroke-width:1.0;"/><text fill="#000000" font-family="sans-serif" font-size="13" lengthAdjust="spacing" textLength="153" x="236" y="563.897">navegarTemporalmente()</text></g><!--link Navegado to Trabajado--><g id="link_Navegado_Trabajado"><path d="M121.39,597.94 C85.09,554 42.42,484.81 76,431 C98.83,394.42 131.677,371.664 170.747,354.494 " fill="none" id="Navegado-to-Trabajado" style="stroke:#181818;stroke-width:1.0;"/><polygon fill="#181818" points="176.24,352.08,166.3912,352.039,171.6625,354.0917,169.6099,359.363,176.24,352.08" style="stroke:#181818;stroke-width:1.0;"/><text fill="#000000" font-family="sans-serif" font-size="13" lengthAdjust="spacing" textLength="109" x="77" y="480.397">volverAlPresente()</text></g><!--link Confirmado to Colaborado--><g id="link_Confirmado_Colaborado"><path d="M370,519.35 C390.13,543.6 411.3173,569.1136 431.4173,593.3236 " fill="none" id="Confirmado-to-Colaborado" style="stroke:#181818;stroke-width:1.0;"/><polygon fill="#181818" points="435.25,597.94,432.5786,588.4604,432.0561,594.093,426.4234,593.5706,435.25,597.94" style="stroke:#181818;stroke-width:1.0;"/><text fill="#000000" font-family="sans-serif" font-size="13" lengthAdjust="spacing" textLength="65" x="407" y="563.897">colaborar()</text></g><!--link Colaborado to Trabajado--><g id="link_Colaborado_Trabajado"><path d="M486.06,597.64 C502.7,540.99 520.93,441.98 470,382 C459.76,369.94 452.1328,363.0958 438.2428,355.0558 " fill="none" id="Colaborado-to-Trabajado" style="stroke:#181818;stroke-width:1.0;"/><polygon fill="#181818" points="433.05,352.05,438.8354,360.0205,437.3773,354.5548,442.8431,353.0968,433.05,352.05" style="stroke:#181818;stroke-width:1.0;"/><text fill="#000000" font-family="sans-serif" font-size="13" lengthAdjust="spacing" textLength="134" x="504" y="480.397">continuarTrabajando()</text></g><!--SRC=[ZLCxZjj03Erz2i9L4c0le2B0mjWYJR18Dcc25FI8jhaO3GNEoCW7EKpEu2FuOk6C9LcINQJJFFAHZuzKJ9W8dlmdQWL-hm1Y0Ju4TeoUVs5zWM4ELR11RIaXr1Hv7x16SD88hDKAHKwYBEjxlCyS4pK8YZ4fOJ3GORDbYPRzPpKgU57Sukkr_VLTmQEw0nyb0jMS38hMEy21LB5X2WaZ773BgKDFyOOzAAWfaRC9-lQ0NPBc_3Un0LQ4vdes4dQipLNG1AZWI-0QQ_3dqzxeLXfIwIZPbTQRKJNUijR3o_7v5DRWp91YPCYsEkMs16w9prr80aechRC-dg0bYuKi6p9gaEDQvYDyn2FjhmECpmg-aaQMG6Q2LR3LMMcW7-PctcnSfZyTnNT5ckdqqAhyD2V5o9SzumqXvZN1mPm_dvHTrdxaY4k56_6u5PsQF09LlqI1oC6fXCj5PRCaQRc18LVxhS_OctxDkowFMgxcpiQN97FTiyqMiziT-VpbkdAskuuWaAE8PbYPmoRvzkuxF3oyNruzZqzzytQr-2bo_lH0BwVJPru3EMrs1Qv_N18deML1IqmSEjGUDFNtA9E5XVAfBzIqPeKlxXJAcBFiOITn97tqp-RJcBreCBDsMDUWVWpzd_f_]--></g></svg>