<?xml version="1.0" encoding="us-ascii" standalone="no"?><svg xmlns="http://www.w3.org/2000/svg" xmlns:xlink="http://www.w3.org/1999/xlink" contentStyleType="text/css" height="955px" preserveAspectRatio="none" style="width:622px;height:955px;background:#FFFFFF;" version="1.1" viewBox="0 0 622 955" width="622px" zoomAndPan="magnify"><defs/><g><line style="stroke:#181818;stroke-width:0.5;stroke-dasharray:5.0,5.0;" x1="46" x2="46" y1="58.1358" y2="897.9043"/><line style="stroke:#181818;stroke-width:0.5;stroke-dasharray:5.0,5.0;" x1="198.5" x2="198.5" y1="58.1358" y2="897.9043"/><line style="stroke:#181818;stroke-width:0.5;stroke-dasharray:5.0,5.0;" x1="301.5" x2="301.5" y1="58.1358" y2="897.9043"/><line style="stroke:#181818;stroke-width:0.5;stroke-dasharray:5.0,5.0;" x1="450.5" x2="450.5" y1="58.1358" y2="897.9043"/><rect fill="#E2E2F0" height="52.1358" rx="2.5" ry="2.5" style="stroke:#181818;stroke-width:0.5;" width="83" x="5" y="5"/><text fill="#000000" font-family="sans-serif" font-size="14" lengthAdjust="spacing" textLength="66" x="13.5" y="26.9659">Directorio</text><text fill="#000000" font-family="sans-serif" font-size="14" lengthAdjust="spacing" textLength="69" x="12" y="46.0339">de trabajo</text><rect fill="#E2E2F0" height="52.1358" rx="2.5" ry="2.5" style="stroke:#181818;stroke-width:0.5;" width="83" x="5" y="896.9043"/><text fill="#000000" font-family="sans-serif" font-size="14" lengthAdjust="spacing" textLength="66" x="13.5" y="918.8702">Directorio</text><text fill="#000000" font-family="sans-serif" font-size="14" lengthAdjust="spacing" textLength="69" x="12" y="937.9381">de trabajo</text><rect fill="#E2E2F0" height="52.1358" rx="2.5" ry="2.5" style="stroke:#181818;stroke-width:0.5;" width="96" x="150.5" y="5"/><text fill="#000000" font-family="sans-serif" font-size="14" lengthAdjust="spacing" textLength="52" x="172.5" y="26.9659">&#193;rea de</text><text fill="#000000" font-family="sans-serif" font-size="14" lengthAdjust="spacing" textLength="82" x="157.5" y="46.0339">preparaci&#243;n</text><rect fill="#E2E2F0" height="52.1358" rx="2.5" ry="2.5" style="stroke:#181818;stroke-width:0.5;" width="96" x="150.5" y="896.9043"/><text fill="#000000" font-family="sans-serif" font-size="14" lengthAdjust="spacing" textLength="52" x="172.5" y="918.8702">&#193;rea de</text><text fill="#000000" font-family="sans-serif" font-size="14" lengthAdjust="spacing" textLength="82" x="157.5" y="937.9381">preparaci&#243;n</text><rect fill="#E2E2F0" height="52.1358" rx="2.5" ry="2.5" style="stroke:#181818;stroke-width:0.5;" width="90" x="256.5" y="5"/><text fill="#000000" font-family="sans-serif" font-size="14" lengthAdjust="spacing" textLength="76" x="263.5" y="26.9659">Repositorio</text><text fill="#000000" font-family="sans-serif" font-size="14" lengthAdjust="spacing" textLength="31" x="286" y="46.0339">local</text><rect fill="#E2E2F0" height="52.1358" rx="2.5" ry="2.5" style="stroke:#181818;stroke-width:0.5;" width="90" x="256.5" y="896.9043"/><text fill="#000000" font-family="sans-serif" font-size="14" lengthAdjust="spacing" textLength="76" x="263.5" y="918.8702">Repositorio</text><text fill="#000000" font-family="sans-serif" font-size="14" lengthAdjust="spacing" textLength="31" x="286" y="937.9381">local</text><rect fill="#E2E2F0" height="52.1358" rx="2.5" ry="2.5" style="stroke:#181818;stroke-width:0.5;" width="90" x="405.5" y="5"/><text fill="#000000" font-family="sans-serif" font-size="14" lengthAdjust="spacing" textLength="76" x="412.5" y="26.9659">Repositorio</text><text fill="#000000" font-family="sans-serif" font-size="14" lengthAdjust="spacing" textLength="48" x="426.5" y="46.0339">remoto</text><rect fill="#E2E2F0" height="52.1358" rx="2.5" ry="2.5" style="stroke:#181818;stroke-width:0.5;" width="90" x="405.5" y="896.9043"/><text fill="#000000" font-family="sans-serif" font-size="14" lengthAdjust="spacing" textLength="76" x="412.5" y="918.8702">Repositorio</text><text fill="#000000" font-family="sans-serif" font-size="14" lengthAdjust="spacing" textLength="48" x="426.5" y="937.9381">remoto</text><rect fill="#EEEEEE" height="3" style="stroke:#EEEEEE;stroke-width:1.0;" width="615.5" x="0" y="89.9888"/><line style="stroke:#000000;stroke-width:1.0;" x1="0" x2="615.5" y1="89.9888" y2="89.9888"/><line style="stroke:#000000;stroke-width:1.0;" x1="0" x2="615.5" y1="92.9888" y2="92.9888"/><rect fill="#EEEEEE" height="25.706" style="stroke:#000000;stroke-width:2.0;" width="178" x="218.75" y="78.1358"/><text fill="#000000" font-family="sans-serif" font-size="13" font-weight="bold" lengthAdjust="spacing" textLength="161" x="224.75" y="96.0328">Operaciones de consulta</text><line style="stroke:#181818;stroke-width:1.0;" x1="46.5" x2="88.5" y1="151.7539" y2="151.7539"/><line style="stroke:#181818;stroke-width:1.0;" x1="88.5" x2="88.5" y1="151.7539" y2="164.7539"/><line style="stroke:#181818;stroke-width:1.0;" x1="47.5" x2="88.5" y1="164.7539" y2="164.7539"/><polygon fill="#181818" points="57.5,160.7539,47.5,164.7539,57.5,168.7539,53.5,164.7539" style="stroke:#181818;stroke-width:1.0;"/><text fill="#000000" font-family="sans-serif" font-size="13" lengthAdjust="spacing" textLength="37" x="53.5" y="145.9449">status</text><path d="M102,118.8419 L102,181.8419 L252,181.8419 L252,128.8419 L242,118.8419 L102,118.8419 " fill="#FEFFDD" style="stroke:#181818;stroke-width:0.5;"/><path d="M242,118.8419 L242,128.8419 L252,128.8419 L242,118.8419 " fill="#FEFFDD" style="stroke:#181818;stroke-width:0.5;"/><text fill="#000000" font-family="sans-serif" font-size="13" lengthAdjust="spacing" textLength="106" x="108" y="137.7389">Ver estado actual:</text><text fill="#000000" font-family="sans-serif" font-size="13" lengthAdjust="spacing" textLength="129" x="108" y="155.4449">archivos modificados,</text><text fill="#000000" font-family="sans-serif" font-size="13" lengthAdjust="spacing" textLength="96" x="108" y="173.1509">preparados, etc.</text><line style="stroke:#181818;stroke-width:1.0;" x1="301.5" x2="343.5" y1="216.0189" y2="216.0189"/><line style="stroke:#181818;stroke-width:1.0;" x1="343.5" x2="343.5" y1="216.0189" y2="229.0189"/><line style="stroke:#181818;stroke-width:1.0;" x1="302.5" x2="343.5" y1="229.0189" y2="229.0189"/><polygon fill="#181818" points="312.5,225.0189,302.5,229.0189,312.5,233.0189,308.5,229.0189" style="stroke:#181818;stroke-width:1.0;"/><text fill="#000000" font-family="sans-serif" font-size="13" lengthAdjust="spacing" textLength="19" x="308.5" y="210.2099">log</text><path d="M351,191.9599 L351,236.9599 L481,236.9599 L481,201.9599 L471,191.9599 L351,191.9599 " fill="#FEFFDD" style="stroke:#181818;stroke-width:0.5;"/><path d="M471,191.9599 L471,201.9599 L481,201.9599 L471,191.9599 " fill="#FEFFDD" style="stroke:#181818;stroke-width:0.5;"/><text fill="#000000" font-family="sans-serif" font-size="13" lengthAdjust="spacing" textLength="71" x="357" y="210.8569">Ver historial</text><text fill="#000000" font-family="sans-serif" font-size="13" lengthAdjust="spacing" textLength="109" x="357" y="228.5629">de confirmaciones</text><line style="stroke:#181818;stroke-width:1.0;" x1="46.5" x2="88.5" y1="271.431" y2="271.431"/><line style="stroke:#181818;stroke-width:1.0;" x1="88.5" x2="88.5" y1="271.431" y2="284.431"/><line style="stroke:#181818;stroke-width:1.0;" x1="47.5" x2="88.5" y1="284.431" y2="284.431"/><polygon fill="#181818" points="57.5,280.431,47.5,284.431,57.5,288.431,53.5,284.431" style="stroke:#181818;stroke-width:1.0;"/><text fill="#000000" font-family="sans-serif" font-size="13" lengthAdjust="spacing" textLength="19" x="53.5" y="265.622">diff</text><path d="M96,247.3719 L96,292.3719 L257,292.3719 L257,257.3719 L247,247.3719 L96,247.3719 " fill="#FEFFDD" style="stroke:#181818;stroke-width:0.5;"/><path d="M247,247.3719 L247,257.3719 L257,257.3719 L247,247.3719 " fill="#FEFFDD" style="stroke:#181818;stroke-width:0.5;"/><text fill="#000000" font-family="sans-serif" font-size="13" lengthAdjust="spacing" textLength="113" x="102" y="266.2689">Comparar cambios</text><text fill="#000000" font-family="sans-serif" font-size="13" lengthAdjust="spacing" textLength="140" x="102" y="283.975">en directorio de trabajo</text><line style="stroke:#181818;stroke-width:1.0;" x1="198.5" x2="240.5" y1="326.843" y2="326.843"/><line style="stroke:#181818;stroke-width:1.0;" x1="240.5" x2="240.5" y1="326.843" y2="339.843"/><line style="stroke:#181818;stroke-width:1.0;" x1="199.5" x2="240.5" y1="339.843" y2="339.843"/><polygon fill="#181818" points="209.5,335.843,199.5,339.843,209.5,343.843,205.5,339.843" style="stroke:#181818;stroke-width:1.0;"/><text fill="#000000" font-family="sans-serif" font-size="13" lengthAdjust="spacing" textLength="71" x="205.5" y="321.034">diff --staged</text><path d="M288,302.784 L288,347.784 L446,347.784 L446,312.784 L436,302.784 L288,302.784 " fill="#FEFFDD" style="stroke:#181818;stroke-width:0.5;"/><path d="M436,302.784 L436,312.784 L446,312.784 L436,302.784 " fill="#FEFFDD" style="stroke:#181818;stroke-width:0.5;"/><text fill="#000000" font-family="sans-serif" font-size="13" lengthAdjust="spacing" textLength="113" x="294" y="321.681">Comparar cambios</text><text fill="#000000" font-family="sans-serif" font-size="13" lengthAdjust="spacing" textLength="137" x="294" y="339.387">en &#225;rea de preparaci&#243;n</text><line style="stroke:#181818;stroke-width:1.0;" x1="301.5" x2="343.5" y1="382.255" y2="382.255"/><line style="stroke:#181818;stroke-width:1.0;" x1="343.5" x2="343.5" y1="382.255" y2="395.255"/><line style="stroke:#181818;stroke-width:1.0;" x1="302.5" x2="343.5" y1="395.255" y2="395.255"/><polygon fill="#181818" points="312.5,391.255,302.5,395.255,312.5,399.255,308.5,395.255" style="stroke:#181818;stroke-width:1.0;"/><text fill="#000000" font-family="sans-serif" font-size="13" lengthAdjust="spacing" textLength="32" x="308.5" y="376.446">show</text><path d="M352,358.196 L352,403.196 L511,403.196 L511,368.196 L501,358.196 L352,358.196 " fill="#FEFFDD" style="stroke:#181818;stroke-width:0.5;"/><path d="M501,358.196 L501,368.196 L511,368.196 L501,358.196 " fill="#FEFFDD" style="stroke:#181818;stroke-width:0.5;"/><text fill="#000000" font-family="sans-serif" font-size="13" lengthAdjust="spacing" textLength="87" x="358" y="377.093">Ver detalles de</text><text fill="#000000" font-family="sans-serif" font-size="13" lengthAdjust="spacing" textLength="138" x="358" y="394.799">confirmaci&#243;n espec&#237;fica</text><rect fill="#EEEEEE" height="3" style="stroke:#EEEEEE;stroke-width:1.0;" width="615.5" x="0" y="430.461"/><line style="stroke:#000000;stroke-width:1.0;" x1="0" x2="615.5" y1="430.461" y2="430.461"/><line style="stroke:#000000;stroke-width:1.0;" x1="0" x2="615.5" y1="433.461" y2="433.461"/><rect fill="#EEEEEE" height="25.706" style="stroke:#000000;stroke-width:2.0;" width="170" x="222.75" y="418.608"/><text fill="#000000" font-family="sans-serif" font-size="13" font-weight="bold" lengthAdjust="spacing" textLength="153" x="228.75" y="436.505">Operaciones de gesti&#243;n</text><polygon fill="#181818" points="186.5,485.8731,196.5,489.8731,186.5,493.8731,190.5,489.8731" style="stroke:#181818;stroke-width:1.0;"/><line style="stroke:#181818;stroke-width:1.0;" x1="46.5" x2="192.5" y1="489.8731" y2="489.8731"/><text fill="#000000" font-family="sans-serif" font-size="13" lengthAdjust="spacing" textLength="17" x="53.5" y="484.0641">rm</text><path d="M203,459.314 L203,504.314 L322,504.314 L322,469.314 L312,459.314 L203,459.314 " fill="#FEFFDD" style="stroke:#181818;stroke-width:0.5;"/><path d="M312,459.314 L312,469.314 L322,469.314 L312,459.314 " fill="#FEFFDD" style="stroke:#181818;stroke-width:0.5;"/><text fill="#000000" font-family="sans-serif" font-size="13" lengthAdjust="spacing" textLength="89" x="209" y="478.2111">Marcar archivo</text><text fill="#000000" font-family="sans-serif" font-size="13" lengthAdjust="spacing" textLength="98" x="209" y="495.9171">para eliminaci&#243;n</text><polygon fill="#181818" points="186.5,541.2851,196.5,545.2851,186.5,549.2851,190.5,545.2851" style="stroke:#181818;stroke-width:1.0;"/><line style="stroke:#181818;stroke-width:1.0;" x1="46.5" x2="192.5" y1="545.2851" y2="545.2851"/><text fill="#000000" font-family="sans-serif" font-size="13" lengthAdjust="spacing" textLength="19" x="53.5" y="539.4761">mv</text><path d="M203,514.7261 L203,559.7261 L408,559.7261 L408,524.7261 L398,514.7261 L203,514.7261 " fill="#FEFFDD" style="stroke:#181818;stroke-width:0.5;"/><path d="M398,514.7261 L398,524.7261 L408,524.7261 L398,514.7261 " fill="#FEFFDD" style="stroke:#181818;stroke-width:0.5;"/><text fill="#000000" font-family="sans-serif" font-size="13" lengthAdjust="spacing" textLength="89" x="209" y="533.6231">Marcar archivo</text><text fill="#000000" font-family="sans-serif" font-size="13" lengthAdjust="spacing" textLength="184" x="209" y="551.3291">para renombrado/movimiento</text><polygon fill="#181818" points="57.5,596.6971,47.5,600.6971,57.5,604.6971,53.5,600.6971" style="stroke:#181818;stroke-width:1.0;"/><line style="stroke:#181818;stroke-width:1.0;" x1="51.5" x2="197.5" y1="600.6971" y2="600.6971"/><text fill="#000000" font-family="sans-serif" font-size="13" lengthAdjust="spacing" textLength="128" x="63.5" y="594.8881">reset HEAD &lt;archivo&gt;</text><path d="M203,570.1381 L203,615.1381 L343,615.1381 L343,580.1381 L333,570.1381 L203,570.1381 " fill="#FEFFDD" style="stroke:#181818;stroke-width:0.5;"/><path d="M333,570.1381 L333,580.1381 L343,580.1381 L333,570.1381 " fill="#FEFFDD" style="stroke:#181818;stroke-width:0.5;"/><text fill="#000000" font-family="sans-serif" font-size="13" lengthAdjust="spacing" textLength="106" x="209" y="589.0351">Quitar archivo del</text><text fill="#000000" font-family="sans-serif" font-size="13" lengthAdjust="spacing" textLength="119" x="209" y="606.7411">&#225;rea de preparaci&#243;n</text><polygon fill="#181818" points="57.5,652.1092,47.5,656.1092,57.5,660.1092,53.5,656.1092" style="stroke:#181818;stroke-width:1.0;"/><line style="stroke:#181818;stroke-width:1.0;" x1="51.5" x2="300.5" y1="656.1092" y2="656.1092"/><text fill="#000000" font-family="sans-serif" font-size="13" lengthAdjust="spacing" textLength="69" x="63.5" y="650.3002">reset --hard</text><path d="M306,625.5501 L306,670.5501 L525,670.5501 L525,635.5501 L515,625.5501 L306,625.5501 " fill="#FEFFDD" style="stroke:#181818;stroke-width:0.5;"/><path d="M515,625.5501 L515,635.5501 L525,635.5501 L515,625.5501 " fill="#FEFFDD" style="stroke:#181818;stroke-width:0.5;"/><text fill="#000000" font-family="sans-serif" font-size="13" lengthAdjust="spacing" textLength="168" x="312" y="644.4472">Descartar todos los cambios</text><text fill="#000000" font-family="sans-serif" font-size="13" lengthAdjust="spacing" textLength="198" x="312" y="662.1532">y volver a confirmaci&#243;n espec&#237;fica</text><polygon fill="#181818" points="209.5,707.5212,199.5,711.5212,209.5,715.5212,205.5,711.5212" style="stroke:#181818;stroke-width:1.0;"/><line style="stroke:#181818;stroke-width:1.0;" x1="203.5" x2="300.5" y1="711.5212" y2="711.5212"/><text fill="#000000" font-family="sans-serif" font-size="13" lengthAdjust="spacing" textLength="64" x="215.5" y="705.7122">reset --soft</text><path d="M306,680.9622 L306,725.9622 L533,725.9622 L533,690.9622 L523,680.9622 L306,680.9622 " fill="#FEFFDD" style="stroke:#181818;stroke-width:0.5;"/><path d="M523,680.9622 L523,690.9622 L533,690.9622 L523,680.9622 " fill="#FEFFDD" style="stroke:#181818;stroke-width:0.5;"/><text fill="#000000" font-family="sans-serif" font-size="13" lengthAdjust="spacing" textLength="129" x="312" y="699.8592">Volver a confirmaci&#243;n</text><text fill="#000000" font-family="sans-serif" font-size="13" lengthAdjust="spacing" textLength="206" x="312" y="717.5652">manteniendo cambios preparados</text><rect fill="#EEEEEE" height="3" style="stroke:#EEEEEE;stroke-width:1.0;" width="615.5" x="0" y="753.2272"/><line style="stroke:#000000;stroke-width:1.0;" x1="0" x2="615.5" y1="753.2272" y2="753.2272"/><line style="stroke:#000000;stroke-width:1.0;" x1="0" x2="615.5" y1="756.2272" y2="756.2272"/><rect fill="#EEEEEE" height="25.706" style="stroke:#000000;stroke-width:2.0;" width="207" x="204.25" y="741.3742"/><text fill="#000000" font-family="sans-serif" font-size="13" font-weight="bold" lengthAdjust="spacing" textLength="190" x="210.25" y="759.2712">Operaciones de comparaci&#243;n</text><line style="stroke:#181818;stroke-width:1.0;" x1="301.5" x2="343.5" y1="806.1393" y2="806.1393"/><line style="stroke:#181818;stroke-width:1.0;" x1="343.5" x2="343.5" y1="806.1393" y2="819.1393"/><line style="stroke:#181818;stroke-width:1.0;" x1="302.5" x2="343.5" y1="819.1393" y2="819.1393"/><polygon fill="#181818" points="312.5,815.1393,302.5,819.1393,312.5,823.1393,308.5,819.1393" style="stroke:#181818;stroke-width:1.0;"/><text fill="#000000" font-family="sans-serif" font-size="13" lengthAdjust="spacing" textLength="107" x="308.5" y="800.3303">diff HEAD~1 HEAD</text><path d="M427,782.0802 L427,827.0802 L605,827.0802 L605,792.0802 L595,782.0802 L427,782.0802 " fill="#FEFFDD" style="stroke:#181818;stroke-width:0.5;"/><path d="M595,782.0802 L595,792.0802 L605,792.0802 L595,782.0802 " fill="#FEFFDD" style="stroke:#181818;stroke-width:0.5;"/><text fill="#000000" font-family="sans-serif" font-size="13" lengthAdjust="spacing" textLength="95" x="433" y="800.9772">Comparar entre</text><text fill="#000000" font-family="sans-serif" font-size="13" lengthAdjust="spacing" textLength="157" x="433" y="818.6833">confirmaciones espec&#237;ficas</text><polygon fill="#181818" points="312.5,864.0513,302.5,868.0513,312.5,872.0513,308.5,868.0513" style="stroke:#181818;stroke-width:1.0;"/><line style="stroke:#181818;stroke-width:1.0;" x1="306.5" x2="449.5" y1="868.0513" y2="868.0513"/><text fill="#000000" font-family="sans-serif" font-size="13" lengthAdjust="spacing" textLength="125" x="318.5" y="862.2423">diff origin/main main</text><path d="M455,837.4923 L455,882.4923 L600,882.4923 L600,847.4923 L590,837.4923 L455,837.4923 " fill="#FEFFDD" style="stroke:#181818;stroke-width:0.5;"/><path d="M590,837.4923 L590,847.4923 L600,847.4923 L590,837.4923 " fill="#FEFFDD" style="stroke:#181818;stroke-width:0.5;"/><text fill="#000000" font-family="sans-serif" font-size="13" lengthAdjust="spacing" textLength="124" x="461" y="856.3893">Comparar rama local</text><text fill="#000000" font-family="sans-serif" font-size="13" lengthAdjust="spacing" textLength="103" x="461" y="874.0953">con rama remota</text><!--SRC=[ZLJ1RjGm4BtxAqOz4ogkAxPIHIfnA0AYYbCkiyviOXHx8jiRn0M9J-43EF49-sDCd7IJjDjLBuuIZzzxyzuu7VfejEdGHRZAZISTsHikNKKGFUxmEry11iWVLBSiFVxsX51HwJfFieFQ7F-vL7hx1M1TN537mKp0BMjiKs5nVw7Ca-KuSXU5KjijVEvee657GOX1imk7DY9ijqhb3v3TY4ZOG8WO3q4vZWJUr4sKRz_80yb6nO0w7h3Tb0wzRapF0InNPc-qR8OtftQ65w2etofLt0_OicwWvVevS6F2e1dRP9h8sXjl9w4hPKApNn__m7OWyw3HxWo7qf6JiiSKO0v1AR5LW6GTWI3BfA6QgbSW7l-COS4ogrLZeU4VppkhA6BR9hjBDpScXyNDZlJnx-3RkN1gSJlLpU4avTwkMJv92Y9soaBS5tL0hR76FQfSdBRzAqvxScntGuBNbdj18XTFzgKSF0MAyF7kDeVtqzcRDV3NWuapi3GasLuqSO6RPGtw9wda54Je01bP9alcACm1_OIUsrxiHhZWySWpcZZn1Dx79w6T1IgTbVj5JfoG2p3nmZpevs-NFJMPGbmCIng_mRvVxzBZXGaKt_rgRXBseYaXBeerganzRTorHUDWM5w0zcWHqeyauO_lwO-1wZy0]--></g></svg>